<?xml version="1.0" encoding="utf-8"?>
<!-- Generator: Adobe Illustrator 25.2.3, SVG Export Plug-In . SVG Version: 6.00 Build 0)  -->
<svg version="1.1" id="Layer_1" xmlns="http://www.w3.org/2000/svg" xmlns:xlink="http://www.w3.org/1999/xlink" x="0px" y="0px"
	 viewBox="0 0 422.2 67.5" style="enable-background:new 0 0 422.2 107.5;" xml:space="preserve">
<style type="text/css">
	.st0{fill:#FFFFFF;}
	.st1{fill-rule:evenodd;clip-rule:evenodd;fill:#FFFFFF;}
</style>
<g>
	<g>
		<path class="st0" d="M147.8,19.2c-2-4.3-5.9-7-11.7-7c-1.8,0-3.5,0.5-5.1,1.3s-3,2-4,3.4l-0.2,0.3V0.4c0-0.1,0-0.2-0.1-0.3
			C126.5,0,126.4,0,126.3,0h-8.2c-0.1,0-0.2,0-0.3,0.1c-0.1,0.1-0.1,0.2-0.1,0.3v48.1c0,0.1,0,0.2,0.1,0.3s0.2,0.1,0.3,0.1h8.8
			c0.1,0,0.2,0,0.3-0.1c0.1-0.1,0.1-0.2,0.1-0.3V28c0-4,2.7-6.8,6.9-6.8c4.7,0,5.8,3.8,5.8,7.7v19.6c0,0.1,0,0.2,0.1,0.3
			s0.2,0.1,0.3,0.1h8.8c0.1,0,0.2,0,0.3-0.1s0.1-0.2,0.1-0.3V27.7c0-0.7,0-1.4-0.1-2.1C149.3,23.4,148.7,21.2,147.8,19.2z"/>
		<path class="st0" d="M103.7,26.3c0,0-4.5-1.1-6.1-1.5c-1.7-0.4-4.5-1.3-4.5-3.5s2.3-2.9,4.7-2.9s5,0.6,5.2,3.2
			c0,0.1,0.1,0.2,0.1,0.2c0.1,0.1,0.2,0.1,0.3,0.1h8.7c0.1,0,0.1,0,0.1,0l0.1-0.1l0.1-0.1c0,0,0-0.1,0-0.2
			c-0.5-8.4-7.9-11.4-14.7-11.4c-8.1,0-14,5.3-14,11.2c0,4.3,1.2,8.3,10.7,11.1c1.7,0.5,3.9,1.1,5.9,1.7c2.4,0.7,3.7,1.7,3.7,3.3
			c0,1.8-2.7,3.1-5.3,3.1c-3.8,0-6.5-1.4-6.7-3.9c0-0.1-0.1-0.2-0.1-0.2c-0.1-0.1-0.2-0.1-0.3-0.1h-8.7c-0.1,0-0.1,0-0.1,0
			s-0.1,0-0.1,0.1l-0.1,0.1v0.1c0.4,7.9,8.1,12.2,15.2,12.2c10.6,0,15.4-6,15.4-11.6C113.3,34.6,112.7,28.6,103.7,26.3z"/>
		<path class="st0" d="M215.7,12.1c-4.4,0-8.1,2.4-10.5,5.4v-5.1c0-0.1,0-0.2-0.1-0.3s-0.2-0.1-0.2-0.1h-8.3c-0.1,0-0.2,0-0.3,0.1
			s-0.1,0.2-0.1,0.3v47.2c0,0.1,0,0.2,0.1,0.2c0.1,0.1,0.2,0.1,0.3,0.1h8.8c0.1,0,0.2,0,0.2-0.1s0.1-0.2,0.1-0.2V44.2h0.1
			c1.4,2.1,5.2,4.7,10.2,4.7c9.4,0,17.3-7.8,17.3-18.4C233.4,20.4,225.6,12.1,215.7,12.1z M214.9,39.9c-1.9,0-3.7-0.5-5.3-1.5
			s-2.8-2.4-3.6-4.2c-0.7-1.7-1-3.6-0.6-5.4c0.3-1.8,1.2-3.5,2.5-4.9c1.3-1.3,3-2.3,4.8-2.6c1.8-0.4,3.7-0.2,5.4,0.5
			s3.2,1.9,4.2,3.4s1.6,3.4,1.6,5.2c0,1.2-0.2,2.4-0.7,3.6c-0.4,1.1-1.1,2.2-2,3c-0.8,0.9-1.9,1.6-3,2
			C217.3,39.6,216.1,39.9,214.9,39.9z"/>
		<path class="st0" d="M170,10.1c-8.2,0-12.3,2.8-15.6,5l-0.1,0.1c-0.2,0.1-0.3,0.3-0.3,0.5s0,0.4,0.1,0.6l3.3,5.6
			c0.1,0.1,0.1,0.2,0.2,0.3c0.1,0.1,0.2,0.1,0.3,0.1s0.2,0,0.4,0c0.1,0,0.2-0.1,0.3-0.2l0.3-0.2c1.7-1.4,4.4-3.3,11-3.8
			c3.7-0.3,6.8,0.7,9.2,2.8c2.6,2.4,4.1,6.2,4.1,10.2c0,7.4-4.4,12.1-11.4,12.2c-5.8,0-9.7-3.1-9.7-7.5c0-2.4,1.1-3.9,3.2-5.5
			c0.2-0.1,0.3-0.3,0.3-0.5s0-0.4-0.1-0.6l-2.9-5.5c-0.1-0.1-0.1-0.2-0.2-0.3c-0.1-0.1-0.2-0.1-0.3-0.2c-0.1,0-0.2,0-0.3,0
			s-0.2,0.1-0.3,0.1c-3.3,1.9-7.3,5.5-7.1,12.4c0.3,8.7,7.5,15.4,16.9,15.6h0.5h0.6c11.2-0.4,19.3-8.7,19.3-19.9
			C191.5,21.2,184,10.1,170,10.1z"/>
		<path class="st0" d="M268.2,15.4h-5.6c-0.1,0-0.3,0.1-0.4,0.1c-0.1,0.1-0.1,0.2-0.1,0.4v11.8c0,0.1,0.1,0.3,0.1,0.3
			c0.1,0.1,0.2,0.1,0.4,0.1h5.6c3.4,0,5.9-2.7,5.9-6.4C274.1,18.1,271.6,15.4,268.2,15.4z"/>
		<path class="st0" d="M285.4,36.2c0,1.7,1.4,2.7,4,2.7c3.4,0,5.4-1.8,5.4-5.1v-0.9l-5.1,0.3C287,33.2,285.4,34.3,285.4,36.2z"/>
		<path class="st0" d="M327,0.1h-75.4c-1.2,0-2.5,0.2-3.6,0.7s-2.2,1.2-3.1,2c-0.9,0.9-1.6,1.9-2,3.1c-0.5,1.1-0.7,2.4-0.7,3.6v41.3
			c0,2.5,1,4.9,2.8,6.7s4.2,2.8,6.7,2.8H327c1.2,0,2.5-0.2,3.6-0.7s2.2-1.2,3.1-2c0.9-0.9,1.6-1.9,2-3.1c0.5-1.1,0.7-2.4,0.7-3.6
			V9.5c0-1.2-0.2-2.5-0.7-3.6s-1.2-2.2-2-3.1c-0.9-0.9-1.9-1.6-3.1-2S328.2,0.1,327,0.1z M268.5,32.8h-5.9c-0.1,0-0.3,0.1-0.4,0.1
			c-0.1,0.1-0.1,0.2-0.1,0.4v8.4c0,0.1-0.1,0.3-0.1,0.4c-0.1,0.1-0.2,0.1-0.4,0.1h-4.2c-0.1,0-0.3-0.1-0.4-0.1
			c-0.1-0.1-0.1-0.2-0.1-0.4V11.3c0-0.1,0.1-0.3,0.1-0.4c0.1-0.1,0.2-0.1,0.4-0.1h11.1c6.3,0,10.8,4.6,10.8,11
			S274.8,32.8,268.5,32.8L268.5,32.8z M299.7,41.7c0,0.1,0,0.1,0,0.2c0,0.1-0.1,0.1-0.1,0.2c0,0-0.1,0.1-0.2,0.1s-0.1,0-0.2,0h-3.9
			c-0.1,0-0.1,0-0.2,0s-0.1-0.1-0.2-0.1c0,0-0.1-0.1-0.1-0.2c0-0.1,0-0.1,0-0.2v-0.9c0-0.1,0-0.2-0.1-0.2c0-0.1-0.1-0.1-0.2-0.1
			s-0.2,0-0.2,0c-0.1,0-0.1,0.1-0.2,0.1c-1.2,1.3-3.1,2.2-6.1,2.2c-4.5,0-7.5-2.3-7.5-6.4c0-1,0.2-2,0.6-2.9s1.1-1.7,1.9-2.2
			c1.6-1.2,4.1-1.8,7.9-2l4-0.1V28c0-2.3-1.6-3.3-4.1-3.3s-4.1,0.9-4.5,2.3c0,0.1-0.1,0.2-0.2,0.3s-0.2,0.1-0.3,0.1h-3.9
			c-0.1,0-0.1,0-0.2,0s-0.1-0.1-0.2-0.1c0-0.1-0.1-0.1-0.1-0.2s0-0.1,0-0.2c0.6-3.5,3.4-6.1,9.5-6.1c6.5,0,8.8,3,8.8,8.8L299.7,41.7
			z M324.3,22l-8.8,23.4c-2,5.4-5.5,6.8-9.3,6.8c-0.7,0-1.4-0.1-2.1-0.3c-0.1,0-0.2-0.1-0.3-0.2c-0.1-0.1-0.1-0.2-0.1-0.3v-3.6
			c0-0.1,0-0.1,0-0.2c0-0.1,0.1-0.1,0.1-0.2c0.1,0,0.1-0.1,0.2-0.1s0.1,0,0.2,0c0.6,0.1,1.2,0.2,1.8,0.2c1.1,0.1,2.1-0.3,3-0.9
			c0.9-0.6,1.5-1.5,1.8-2.5l0.3-0.8c0-0.1,0-0.2,0-0.3l-8.2-21c0-0.1,0-0.2,0-0.2c0-0.1,0-0.2,0.1-0.2c0-0.1,0.1-0.1,0.2-0.2
			c0.1,0,0.1-0.1,0.2-0.1h4c0.1,0,0.2,0,0.3,0.1c0.1,0.1,0.1,0.1,0.2,0.2l5.6,14.9c0,0.1,0.1,0.2,0.2,0.2c0.1,0.1,0.2,0.1,0.3,0.1
			s0.2,0,0.3-0.1c0.1-0.1,0.2-0.1,0.2-0.2l4.8-14.8c0-0.1,0.1-0.2,0.2-0.3c0.1-0.1,0.2-0.1,0.3-0.1h4.1c0.1,0,0.2,0,0.2,0.1
			c0.1,0,0.1,0.1,0.2,0.2c0,0.1,0.1,0.1,0.1,0.2C324.3,21.8,324.3,21.9,324.3,22L324.3,22z"/>
	</g>
</g>
</svg>
